<?xml version="1.0" standalone="no"?>
<!DOCTYPE svg PUBLIC "-//W3C//DTD SVG 1.1//EN" "http://www.w3.org/Graphics/SVG/1.1/DTD/svg11.dtd" >
<svg xmlns="http://www.w3.org/2000/svg">
<metadata></metadata>
<defs>
<font id="armor_piercingregular" horiz-adv-x="706" >
<font-face units-per-em="2048" ascent="1638" descent="-410" />
<missing-glyph horiz-adv-x="478" />
<glyph horiz-adv-x="2048" />
<glyph horiz-adv-x="2048" />
<glyph unicode="&#xd;" horiz-adv-x="478" />
<glyph unicode=" "  horiz-adv-x="478" />
<glyph unicode="&#x09;" horiz-adv-x="478" />
<glyph unicode="&#xa0;" horiz-adv-x="478" />
<glyph unicode="!" horiz-adv-x="480" d="M4 2140h322l-40 -1316h-234zM52 448v232h234v-232h-234z" />
<glyph unicode="&#x22;" horiz-adv-x="732" d="M2 1822v232h234v-232l-46 -192h-150zM334 1822v232h234v-232l-46 -192h-150z" />
<glyph unicode="#" horiz-adv-x="1174" d="M16 956l26 232h184v134h-168l26 232h142v502h232v-502h136v502h232v-502h200l-26 -232h-174v-134h158l-26 -232h-132v-502h-232v502h-136v-502h-232v502h-210zM458 1188h136v134h-136v-134z" />
<glyph unicode="$" horiz-adv-x="744" d="M-6 516v510h230v-414q34 -24 68 -24t70 24v682l-310 58q-50 16 -58 82v530q8 82 184 114v174h232v-168q184 -30 184 -114v-280h-232v170q-36 22 -70 22t-68 -22v-306l304 -54q42 -8 54 -27t12 -65v-900q0 -74 -184 -102v-172h-232v170q-184 22 -184 112z" />
<glyph unicode="%" horiz-adv-x="1314" d="M0 1364v284q0 62 42 105t104 43h292q60 0 103 -44t43 -104v-84l132 492h232l-198 -740h2h296q60 0 103 -43t43 -103v-284q0 -60 -43 -103t-103 -43h-292q-102 0 -138 94l-102 -380h-232l210 774q-30 -10 -56 -10h-292q-62 0 -104 42t-42 104zM218 1388h148v238h-148v-238 zM828 908h148v240h-148v-240z" />
<glyph unicode="&#x26;" horiz-adv-x="694" d="M0 718v442l94 34l-94 28v484h152v350h232v-350h150v-232h-304v-184l174 14v-210l-174 -14v-128h304v-232h-150v-266h-232v264h-152z" />
<glyph unicode="'" horiz-adv-x="442" d="M2 1822v232h234v-424h-150v192h-84z" />
<glyph unicode="(" horiz-adv-x="744" d="M2 1254q-18 400 288 802h234q-312 -402 -302 -802t302 -800h-234q-270 400 -288 800z" />
<glyph unicode=")" d="M0 454q290 400 300 800q8 400 -300 802h232q308 -402 290 -802t-290 -800h-232z" />
<glyph unicode="*" horiz-adv-x="796" d="M6 1698l102 48l-102 46l74 162l152 -70v168h176v-168l152 70l74 -162l-102 -46l102 -48l-74 -160l-152 68v-166h-176v166l-152 -68z" />
<glyph unicode="+" horiz-adv-x="744" d="M0 892v232h188v186h232v-186h186v-232h-186v-186h-232v186h-188z" />
<glyph unicode="," horiz-adv-x="442" d="M2 456v232h234v-424h-150v192h-84z" />
<glyph unicode="-" horiz-adv-x="770" d="M2 906v232h606v-232h-606z" />
<glyph unicode="." horiz-adv-x="442" d="M2 452v232h234v-232h-234z" />
<glyph unicode="/" horiz-adv-x="834" d="M10 454l432 1602h232l-432 -1602h-232z" />
<glyph unicode="0" d="M0 596v1318q0 62 42 104t104 42h292q60 0 103 -43t43 -103v-1318q0 -60 -43 -103t-103 -43h-292q-62 0 -104 42t-42 104zM218 620h148v1272h-148v-1272z" />
<glyph unicode="1" horiz-adv-x="530" d="M4 1730l134 328h232v-1604h-232v1276h-134z" />
<glyph unicode="2" d="M-2 450l2 1024q0 106 98 106h256v246h-354v232h456q130 0 130 -144v-566h-358v-666h358v-232h-588z" />
<glyph unicode="3" d="M4 434v232h356v666h-356v232h356v246h-356v232q76 0 229 4t229 4q52 0 91 -42t39 -94v-1376q-16 -104 -116 -104h-472z" />
<glyph unicode="4" d="M0 806v1250h232v-1018h122v1018h232v-1604h-232v354h-354z" />
<glyph unicode="5" d="M0 450v232h358v666h-358v710h590v-232h-354v-246h248q104 0 106 -112q4 -202 2 -442l-2 -440q0 -76 -22 -106t-98 -30h-470z" />
<glyph unicode="6" d="M-2 586v1382q0 90 84 90h502v-232h-354v-246h256q96 0 98 -88q4 -264 0 -466q-6 -212 0 -462q2 -114 -104 -114h-376q-106 0 -106 136zM230 682h122v666h-122v-666z" />
<glyph unicode="7" d="M6 1834v232q106 0 319 -2t319 -2l-294 -1616h-232l252 1388h-364z" />
<glyph unicode="8" d="M0 1944q0 110 112 112q60 0 192 -2q96 -2 192 0q92 2 92 -80v-1394q0 -134 -106 -134h-378q-102 0 -102 140zM234 678h122v666h-122v-666zM234 1576h122v246h-122v-246z" />
<glyph unicode="9" d="M-2 1482q4 216 2 462q0 114 102 114h378q106 0 106 -136v-1382q0 -90 -86 -90h-500v232h352v246h-256q-94 0 -96 90q-4 276 -2 464zM230 1160h122v666h-122v-666z" />
<glyph unicode=":" horiz-adv-x="442" d="M2 452v232h234v-232h-234zM2 1116v232h234v-232h-234z" />
<glyph unicode=";" horiz-adv-x="442" d="M2 456v232h234v-424h-150v192h-84zM2 1116v232h234v-232h-234z" />
<glyph unicode="&#x3c;" horiz-adv-x="846" d="M6 1264l478 792h232l-486 -802l486 -800h-232z" />
<glyph unicode="=" horiz-adv-x="744" d="M0 744v232h606v-232h-606zM0 1092v232h606v-232h-606z" />
<glyph unicode="&#x3e;" horiz-adv-x="846" d="M6 454l486 800l-486 802h232l478 -792l-478 -810h-232z" />
<glyph unicode="?" horiz-adv-x="744" d="M0 1470v590q0 68 122 98q78 20 176 20q90 0 176 -20q128 -30 128 -90v-960q0 -78 -74 -78h-112v-208h-234v482h188v662q-36 22 -70 22t-68 -22v-496h-232zM182 446v232h234v-232h-234z" />
<glyph unicode="@" horiz-adv-x="1302" d="M2 424v1660q0 62 42 104t104 42h876q60 0 106 -43t46 -103v-1660q0 -60 -43 -103t-103 -43h-882q-62 0 -104 42t-42 104zM220 446h738v10h-160l-16 120l-242 -20l-8 -100h-234l140 1604h328l192 -1440v1440h-738v-1614zM558 768l198 16l-118 886z" />
<glyph unicode="A" horiz-adv-x="770" d="M0 454l138 1604h326l214 -1604h-180l-16 120l-242 -20l-10 -100h-230zM258 764l196 18l-118 886z" />
<glyph unicode="B" d="M2 454v1604h8v4q84 -4 176 -4h48v-2q84 -4 168 -4q108 -40 126 -154q51 -309 51 -733q0 -71 -1 -145q-2 -112 -80 -168l82 -136q24 -40 24 -82q0 -38 -20 -78q-46 -88 -110 -106zM234 632l162 4l-86 124l-76 -36v-92zM234 1030l72 34q48 22 50 76q5 117 5 224 q0 53 -1 104q-6 174 -42 330q-12 54 -62 54h-22v-822z" />
<glyph unicode="C" d="M0 584v1318q0 60 43 103t103 43h292q60 0 103 -43t43 -103v-172h-218v148h-148v-1270h148v80h218v-104q0 -60 -43 -103t-103 -43h-292q-60 0 -103 43t-43 103z" />
<glyph unicode="D" d="M-8 440v1602h8v6l86 -4q44 -2 88 -2h48q84 -4 168 -4q108 -44 126 -154q53 -322 52 -890q0 -124 -2 -260q-2 -128 -106 -184q-120 -64 -228 -88q-90 -20 -240 -22zM222 670l72 34q48 22 50 79t6 209v60q0 268 -16 522q-10 130 -28 212q-12 50 -62 56h-22v-1172z" />
<glyph unicode="E" d="M2 454v1604h536v-232h-304v-800l174 14v-210l-174 -14v-128h304v-232h-304v-2h-232z" />
<glyph unicode="F" d="M-4 454v1604h534v-232h-304v-800l174 14v-210l-174 -14v-362h-230z" />
<glyph unicode="G" d="M0 584v1318q0 60 43 103t103 43h292q60 0 103 -43t43 -103v-170h-218v148h-148v-1272h148v420h218v-664h-218v74h-220q-60 0 -103 43t-43 103z" />
<glyph unicode="H" horiz-adv-x="744" d="M-4 454v1604h230v-1234l158 14v1220h232v-1604h-232v174l-158 -12v-162h-230z" />
<glyph unicode="I" horiz-adv-x="390" d="M0 454v1604h230v-1604h-230z" />
<glyph unicode="J" horiz-adv-x="720" d="M2 596v444h218v-420h148v1440l218 -6v-1458q0 -60 -43 -103t-103 -43h-292q-62 0 -104 42t-42 104z" />
<glyph unicode="K" horiz-adv-x="744" d="M-4 446v1604h230l4 -668l202 664l186 -58l-264 -864l272 -574l-214 -118l-158 368l-28 -90v-264h-230z" />
<glyph unicode="L" horiz-adv-x="732" d="M2 454v1604h232v-1372h340v-232h-572z" />
<glyph unicode="M" horiz-adv-x="1010" d="M-2 454v1604h230v-2q70 0 180 2q14 0 28 1q237 0 368 -65q76 -40 80 -120v-95v41v-156v-1210h-232v1380q-12 43 -74 43q-8 0 -16 -1v-1422h-232v1380q-43 39 -87 39q-8 0 -15 -1v-1418h-230z" />
<glyph unicode="N" horiz-adv-x="770" d="M0 454v1604h232q168 0 248 -22q148 -40 156 -162h-2v-1420h-232v1380q-40 46 -122 46q-26 0 -48 -8v-1418h-232z" />
<glyph unicode="O" d="M0 596v1318q0 62 42 104t104 42h292q60 0 103 -43t43 -103v-1318q0 -60 -43 -103t-103 -43h-292q-62 0 -104 42t-42 104zM218 620h148v1272h-148v-1272z" />
<glyph unicode="P" d="M-4 454v1602h10l-2 4q30 0 88 -2t88 -2h46v-2q28 0 86 -2t86 -2q106 -40 124 -152q51 -317 52 -737q0 -70 -2 -143q-2 -134 -106 -184l-240 -114v-266h-230zM226 1028l74 34q50 22 52 76q4 77 4 167q0 60 -2 127q-6 140 -42 294q-12 48 -60 54h-26v-752z" />
<glyph unicode="Q" d="M-2 586v1318q0 62 42 105t104 43h292q60 0 103 -44t43 -104v-1318q0 -78 -68 -122l44 -80l-212 -134l-90 190h-112q-62 0 -104 42t-42 104zM216 610h146v1272h-146v-1272z" />
<glyph unicode="R" d="M-6 446v1604h8v4q84 -4 176 -4h46v-2q84 -4 170 -4q108 -40 126 -154q51 -305 52 -732q0 -71 -2 -146q-2 -128 -106 -184l-24 -10l182 -382l-216 -116l-170 400l-12 -6v-268h-230zM224 1022l72 32q50 28 52 78q5 97 5 179q0 62 -3 115q-6 130 -42 294q-10 48 -60 54h-24 v-752z" />
<glyph unicode="S" horiz-adv-x="732" d="M0 530v510h230v-416q34 -20 68 -20t70 20v684l-310 58q-58 20 -58 80v530q0 66 124 100q84 24 178 28h13q102 0 191 -29q94 -31 94 -93v-280h-232v170q-36 22 -70 22q-36 0 -68 -22v-304l304 -56q42 -8 54 -27t12 -63v-900q0 -62 -128 -92q-84 -20 -176 -20 q-100 0 -176 20q-120 30 -120 100z" />
<glyph unicode="T" horiz-adv-x="682" d="M2 1814v232h566v-232h-168v-1374h-232v1374h-166z" />
<glyph unicode="U" d="M0 584v1464h220l-2 -1440h148l-2 1440h220v-1464q0 -60 -43 -103t-103 -43h-292q-60 0 -103 43t-43 103z" />
<glyph unicode="V" horiz-adv-x="770" d="M6 2040l230 26l98 -912l98 912l230 -26l-170 -1594h-316z" />
<glyph unicode="W" horiz-adv-x="986" d="M-2 626v1420h230v-1380q9 -43 69 -43q10 0 21 1v1422h232v-1380q36 -40 74 -40q12 0 28 2v1418h232v-1604h-232v2q-72 -2 -182 -4h-28q-238 0 -366 66q-78 40 -78 120z" />
<glyph unicode="X" horiz-adv-x="820" d="M0 2016l222 70l130 -448l130 448l222 -70l-232 -798l218 -748l-222 -72l-116 400l-116 -400l-222 72l216 748z" />
<glyph unicode="Y" d="M0 2052h232v-1010h102v1010h234v-1184q0 -58 -66 -58h-102v-352h-232v352h-108q-58 0 -58 76z" />
<glyph unicode="Z" d="M-8 442v232l346 1140h-346v232h566v-232l-334 -1140h334v-232h-566z" />
<glyph unicode="[" d="M-6 218v2072h588v-232h-358v-1608h358v-232h-588z" />
<glyph unicode="]" d="M-6 218v232h356v1608h-356v232h588v-2072h-588z" />
<glyph unicode="_" horiz-adv-x="694" d="M2 216v232h684v-232h-684z" />
<glyph unicode="a" horiz-adv-x="770" d="M0 454l138 1604h326l214 -1604h-180l-16 120l-242 -20l-10 -100h-230zM258 764l196 18l-118 886z" />
<glyph unicode="b" d="M2 454v1604h8v4q84 -4 176 -4h48v-2q84 -4 168 -4q108 -40 126 -154q51 -309 51 -733q0 -71 -1 -145q-2 -112 -80 -168l82 -136q24 -40 24 -82q0 -38 -20 -78q-46 -88 -110 -106zM234 632l162 4l-86 124l-76 -36v-92zM234 1030l72 34q48 22 50 76q5 117 5 224 q0 53 -1 104q-6 174 -42 330q-12 54 -62 54h-22v-822z" />
<glyph unicode="c" d="M0 584v1318q0 60 43 103t103 43h292q60 0 103 -43t43 -103v-172h-218v148h-148v-1270h148v80h218v-104q0 -60 -43 -103t-103 -43h-292q-60 0 -103 43t-43 103z" />
<glyph unicode="d" d="M-8 440v1602h8v6l86 -4q44 -2 88 -2h48q84 -4 168 -4q108 -44 126 -154q53 -322 52 -890q0 -124 -2 -260q-2 -128 -106 -184q-120 -64 -228 -88q-90 -20 -240 -22zM222 670l72 34q48 22 50 79t6 209v60q0 268 -16 522q-10 130 -28 212q-12 50 -62 56h-22v-1172z" />
<glyph unicode="e" d="M2 454v1604h536v-232h-304v-800l174 14v-210l-174 -14v-128h304v-232h-304v-2h-232z" />
<glyph unicode="f" d="M-4 454v1604h534v-232h-304v-800l174 14v-210l-174 -14v-362h-230z" />
<glyph unicode="g" d="M0 584v1318q0 60 43 103t103 43h292q60 0 103 -43t43 -103v-170h-218v148h-148v-1272h148v420h218v-664h-218v74h-220q-60 0 -103 43t-43 103z" />
<glyph unicode="h" horiz-adv-x="744" d="M-4 454v1604h230v-1234l158 14v1220h232v-1604h-232v174l-158 -12v-162h-230z" />
<glyph unicode="i" horiz-adv-x="390" d="M0 454v1604h230v-1604h-230z" />
<glyph unicode="j" horiz-adv-x="720" d="M2 596v444h218v-420h148v1440l218 -6v-1458q0 -60 -43 -103t-103 -43h-292q-62 0 -104 42t-42 104z" />
<glyph unicode="k" horiz-adv-x="744" d="M-4 446v1604h230l4 -668l202 664l186 -58l-264 -864l272 -574l-214 -118l-158 368l-28 -90v-264h-230z" />
<glyph unicode="l" horiz-adv-x="732" d="M2 454v1604h232v-1372h340v-232h-572z" />
<glyph unicode="m" horiz-adv-x="1010" d="M-2 454v1604h230v-2q70 0 180 2q14 0 28 1q237 0 368 -65q76 -40 80 -120v-95v41v-156v-1210h-232v1380q-12 43 -74 43q-8 0 -16 -1v-1422h-232v1380q-43 39 -87 39q-8 0 -15 -1v-1418h-230z" />
<glyph unicode="n" horiz-adv-x="770" d="M0 454v1604h232q168 0 248 -22q148 -40 156 -162h-2v-1420h-232v1380q-40 46 -122 46q-26 0 -48 -8v-1418h-232z" />
<glyph unicode="o" d="M0 596v1318q0 62 42 104t104 42h292q60 0 103 -43t43 -103v-1318q0 -60 -43 -103t-103 -43h-292q-62 0 -104 42t-42 104zM218 620h148v1272h-148v-1272z" />
<glyph unicode="p" d="M-4 454v1602h10l-2 4q30 0 88 -2t88 -2h46v-2q28 0 86 -2t86 -2q106 -40 124 -152q51 -317 51 -737q0 -70 -1 -143q-2 -134 -106 -184l-240 -114v-266h-230zM226 1028l74 34q50 22 52 76q4 77 4 167q0 61 -2 127q-6 140 -42 294q-12 48 -60 54h-26v-752z" />
<glyph unicode="q" d="M-2 586v1318q0 62 42 105t104 43h292q60 0 103 -44t43 -104v-1318q0 -78 -68 -122l44 -80l-212 -134l-90 190h-112q-62 0 -104 42t-42 104zM216 610h146v1272h-146v-1272z" />
<glyph unicode="r" d="M-6 446v1604h8v4q84 -4 176 -4h46v-2q84 -4 170 -4q108 -40 126 -154q51 -305 52 -732q0 -71 -2 -146q-2 -128 -106 -184l-24 -10l182 -382l-216 -116l-170 400l-12 -6v-268h-230zM224 1022l72 32q50 28 52 78q5 97 5 179q0 62 -3 115q-6 130 -42 294q-10 48 -60 54h-24 v-752z" />
<glyph unicode="s" horiz-adv-x="732" d="M0 530v510h230v-416q34 -20 68 -20t70 20v684l-310 58q-58 20 -58 80v530q0 66 124 100q84 24 178 28h13q102 0 191 -29q94 -31 94 -93v-280h-232v170q-36 22 -70 22q-36 0 -68 -22v-304l304 -56q42 -8 54 -27t12 -63v-900q0 -62 -128 -92q-84 -20 -176 -20 q-100 0 -176 20q-120 30 -120 100z" />
<glyph unicode="t" horiz-adv-x="682" d="M2 1814v232h566v-232h-168v-1374h-232v1374h-166z" />
<glyph unicode="u" d="M0 584v1464h220l-2 -1440h148l-2 1440h220v-1464q0 -60 -43 -103t-103 -43h-292q-60 0 -103 43t-43 103z" />
<glyph unicode="v" horiz-adv-x="770" d="M6 2040l230 26l98 -912l98 912l230 -26l-170 -1594h-316z" />
<glyph unicode="w" horiz-adv-x="986" d="M-2 626v1420h230v-1380q9 -43 69 -43q10 0 21 1v1422h232v-1380q36 -40 74 -40q12 0 28 2v1418h232v-1604h-232v2q-72 -2 -182 -4h-28q-238 0 -366 66q-78 40 -78 120z" />
<glyph unicode="x" horiz-adv-x="820" d="M0 2016l222 70l130 -448l130 448l222 -70l-232 -798l218 -748l-222 -72l-116 400l-116 -400l-222 72l216 748z" />
<glyph unicode="y" d="M0 2052h232v-1010h102v1010h234v-1184q0 -58 -66 -58h-102v-352h-232v352h-108q-58 0 -58 76z" />
<glyph unicode="z" d="M-8 442v232l346 1140h-346v232h566v-232l-334 -1140h334v-232h-566z" />
<glyph unicode="&#xad;" horiz-adv-x="770" d="M2 906v232h606v-232h-606z" />
<glyph unicode="&#xd2;" horiz-adv-x="732" d="M2 1630v424h234v-232h-86v-192h-148zM354 1630v424h232v-232h-84v-192h-148z" />
<glyph unicode="&#xd3;" horiz-adv-x="732" d="M2 1822v232h234v-424h-150v192h-84zM354 1822v232h232v-424h-148v192h-84z" />
<glyph unicode="&#xd4;" horiz-adv-x="442" d="M2 1822v232h234v-424h-150v192h-84z" />
<glyph unicode="&#xd5;" horiz-adv-x="442" d="M2 1822v232h234v-424h-150v192h-84z" />
<glyph unicode="&#x2000;" horiz-adv-x="1145" />
<glyph unicode="&#x2001;" horiz-adv-x="2290" />
<glyph unicode="&#x2002;" horiz-adv-x="1145" />
<glyph unicode="&#x2003;" horiz-adv-x="2290" />
<glyph unicode="&#x2004;" horiz-adv-x="763" />
<glyph unicode="&#x2005;" horiz-adv-x="572" />
<glyph unicode="&#x2006;" horiz-adv-x="381" />
<glyph unicode="&#x2007;" horiz-adv-x="381" />
<glyph unicode="&#x2008;" horiz-adv-x="286" />
<glyph unicode="&#x2009;" horiz-adv-x="458" />
<glyph unicode="&#x200a;" horiz-adv-x="127" />
<glyph unicode="&#x2010;" horiz-adv-x="770" d="M2 906v232h606v-232h-606z" />
<glyph unicode="&#x2011;" horiz-adv-x="770" d="M2 906v232h606v-232h-606z" />
<glyph unicode="&#x2012;" horiz-adv-x="770" d="M2 906v232h606v-232h-606z" />
<glyph unicode="&#x2013;" horiz-adv-x="1188" d="M2 906v232h1024v-232h-1024z" />
<glyph unicode="&#x2014;" horiz-adv-x="2212" d="M2 906v232h2048v-232h-2048z" />
<glyph unicode="&#x2018;" horiz-adv-x="442" d="M2 1602h150v192h84v232h-234v-424z" />
<glyph unicode="&#x2019;" horiz-adv-x="442" d="M2 1822v232h234v-424h-150v192h-84z" />
<glyph unicode="&#x201c;" horiz-adv-x="732" d="M2 1630v424h234v-232h-86v-192h-148zM354 1630v424h232v-232h-84v-192h-148z" />
<glyph unicode="&#x201d;" horiz-adv-x="732" d="M2 1822v232h234v-424h-150v192h-84zM354 1822v232h232v-424h-148v192h-84z" />
<glyph unicode="&#x202f;" horiz-adv-x="458" />
<glyph unicode="&#x205f;" horiz-adv-x="572" />
<glyph unicode="&#xe000;" horiz-adv-x="2090" d="M0 0v2090h2090v-2090h-2090z" />
</font>
</defs>
</svg>
